<svg viewBox="0 0 369.89473684210526 61.77573006613213" xmlns="http://www.w3.org/2000/svg">
            <defs id="SvgjsDefs1669"></defs><g id="SvgjsG1670" featurekey="symbolFeature-0" transform="matrix(0.24561403508771928,0,0,0.24561403508771928,-16.82456140350877,-31.99982546086897)" fill="#ffffff"><g xmlns="http://www.w3.org/2000/svg"><polygon points="121.6,256.1 170.1,207.7 143.5,181.1 68.5,256.1 122.5,310.1 148.9,283.4  "></polygon><polygon points="389.5,202.1 363.1,228.7 390.4,256.1 342.1,304.6 368.5,331.1 443.5,256.1  "></polygon><rect x="96.9" y="237.3" transform="matrix(0.7071 -0.7071 0.7071 0.7071 -106.0356 256.0074)" width="318.2" height="37.5"></rect></g></g><g id="SvgjsG1671" featurekey="nameFeature-0" transform="matrix(1.0738454901297703,0,0,1.0738454901297703,109.85230901974046,-0.8861376887663326)" fill="#ffffff"><path d="M10 12 l8.48 0 l8 8 l0 20 l-6.8 0 l0 -7.12 l-10.88 0 l0 7.12 l-6.8 0 l0 -20 z M8.8 22.84 l0 3.24 l10.88 0 l0 -3.24 l-5.44 -5.44 z M21.68 31.68 l0 0.4 l0.4 0 l0 -0.4 l-0.4 0 z M20.48 31.68 l0 0.4 l0.4 0 l0 -0.4 l-0.4 0 z M7.6 31.68 l0 0.4 l0.4 0 l0 -0.4 l-0.4 0 z M22.88 31.68 l0 0.4 l0.4 0 l0 -0.4 l-0.4 0 z M20.48 28.08 l0 0.4 l0.4 0 l0 -0.4 l-0.4 0 z M20.48 29.28 l0 0.4 l0.4 0 l0 -0.4 l-0.4 0 z M24.08 31.68 l0 0.4 l0.4 0 l0 -0.4 l-0.4 0 z M21.68 30.48 l0 0.4 l0.4 0 l0 -0.4 l-0.4 0 z M5.2 30.48 l0 0.4 l0.4 0 l0 -0.4 l-0.4 0 z M7.6 28.08 l0 0.4 l0.4 0 l0 -0.4 l-0.4 0 z M21.68 29.28 l0 0.4 l0.4 0 l0 -0.4 l-0.4 0 z M20.48 30.48 l0 0.4 l0.4 0 l0 -0.4 l-0.4 0 z M4 31.68 l0 0.4 l0.4 0 l0 -0.4 l-0.4 0 z M6.4 31.68 l0 0.4 l0.4 0 l0 -0.4 l-0.4 0 z M6.4 30.48 l0 0.4 l0.4 0 l0 -0.4 l-0.4 0 z M7.6 29.28 l0 0.4 l0.4 0 l0 -0.4 l-0.4 0 z M22.88 30.48 l0 0.4 l0.4 0 l0 -0.4 l-0.4 0 z M5.2 31.68 l0 0.4 l0.4 0 l0 -0.4 l-0.4 0 z M6.4 29.28 l0 0.4 l0.4 0 l0 -0.4 l-0.4 0 z M7.6 30.48 l0 0.4 l0.4 0 l0 -0.4 l-0.4 0 z M14.8 15.120000000000001 l0.28 0.28 l0.28 -0.28 l-0.28 -0.28 z M13.96 16 l0.28 0.28 l0.28 -0.28 l-0.28 -0.28 z M15.64 14.280000000000001 l0.28 0.28 l0.28 -0.28 l-0.28 -0.28 z M11.4 13.440000000000001 l0.28 0.28 l0.28 -0.28 l-0.28 -0.28 z M12.28 14.280000000000001 l0.28 0.28 l0.28 -0.28 l-0.28 -0.28 z M16.52 13.440000000000001 l0.28 0.28 l0.28 -0.28 l-0.28 -0.28 z M13.96 14.280000000000001 l0.28 0.28 l0.28 -0.28 l-0.28 -0.28 z M13.12 13.440000000000001 l0.28 0.28 l0.28 -0.28 l-0.28 -0.28 z M13.12 15.120000000000001 l0.28 0.28 l0.28 -0.28 l-0.28 -0.28 z M14.8 13.440000000000001 l0.28 0.28 l0.28 -0.28 l-0.28 -0.28 z M30.48 12 l6.8 0 l0 28 l-6.8 0 l0 -28 z M56.519999999999996 40 l-8.44 0 l0 8.72 l-6.8 0 l0 -22.72 l1.2 0 l0 -1.2 l1.2 0 l0 -1.2 l1.2 0 l0 -1.2 l1.2 0 l0 -1.2 l1.2 0 l0 -1.2 l9.24 0 l0 1.2 l1.2 0 l0 1.2 l1.2 0 l0 1.2 l1.2 0 l0 1.2 l1.2 0 l0 1.2 l1.2 0 l0 8 l-1.2 0 l0 1.2 l-1.2 0 l0 1.2 l-1.2 0 l0 1.2 l-1.2 0 l0 1.2 l-1.2 0 l0 1.2 z M55.72 26.8 l-7.64 0 l0 6.4 l7.64 0 l0 -6.4 z M44.480000000000004 25.6 l0 0.4 l0.4 0 l0 -0.4 l-0.4 0 z M45.68 23.2 l0 0.4 l0.4 0 l0 -0.4 l-0.4 0 z M42.08 34 l0 0.4 l0.4 0 l0 -0.4 l-0.4 0 z M45.68 38.8 l0 0.4 l0.4 0 l0 -0.4 l-0.4 0 z M46.88 35.2 l0 0.4 l0.4 0 l0 -0.4 l-0.4 0 z M45.68 34 l0 0.4 l0.4 0 l0 -0.4 l-0.4 0 z M46.88 38.8 l0 0.4 l0.4 0 l0 -0.4 l-0.4 0 z M58.120000000000005 36.8 l0 -0.4 l-0.4 0 l0 0.4 l0.4 0 z M45.68 37.6 l0 0.4 l0.4 0 l0 -0.4 l-0.4 0 z M43.28 36.4 l0 0.4 l0.4 0 l0 -0.4 l-0.4 0 z M58.120000000000005 26 l0 -0.4 l-0.4 0 l0 0.4 l0.4 0 z M56.92 22.4 l0 -0.4 l-0.4 0 l0 0.4 l0.4 0 z M60.519999999999996 26 l0 -0.4 l-0.4 0 l0 0.4 l0.4 0 z M58.120000000000005 34.4 l0 -0.4 l-0.4 0 l0 0.4 l0.4 0 z M58.120000000000005 24.8 l0 -0.4 l-0.4 0 l0 0.4 l0.4 0 z M56.92 38 l0 -0.4 l-0.4 0 l0 0.4 l0.4 0 z M46.88 24.4 l0 0.4 l0.4 0 l0 -0.4 l-0.4 0 z M56.92 23.6 l0 -0.4 l-0.4 0 l0 0.4 l0.4 0 z M59.32 24.8 l0 -0.4 l-0.4 0 l0 0.4 l0.4 0 z M44.480000000000004 36.4 l0 0.4 l0.4 0 l0 -0.4 l-0.4 0 z M46.88 34 l0 0.4 l0.4 0 l0 -0.4 l-0.4 0 z M60.519999999999996 34.4 l0 -0.4 l-0.4 0 l0 0.4 l0.4 0 z M59.32 26 l0 -0.4 l-0.4 0 l0 0.4 l0.4 0 z M56.92 35.6 l0 -0.4 l-0.4 0 l0 0.4 l0.4 0 z M56.92 36.8 l0 -0.4 l-0.4 0 l0 0.4 l0.4 0 z M59.32 35.6 l0 -0.4 l-0.4 0 l0 0.4 l0.4 0 z M58.120000000000005 23.6 l0 -0.4 l-0.4 0 l0 0.4 l0.4 0 z M45.68 25.6 l0 0.4 l0.4 0 l0 -0.4 l-0.4 0 z M45.68 36.4 l0 0.4 l0.4 0 l0 -0.4 l-0.4 0 z M42.08 35.2 l0 0.4 l0.4 0 l0 -0.4 l-0.4 0 z M56.92 24.8 l0 -0.4 l-0.4 0 l0 0.4 l0.4 0 z M44.480000000000004 24.4 l0 0.4 l0.4 0 l0 -0.4 l-0.4 0 z M56.92 26 l0 -0.4 l-0.4 0 l0 0.4 l0.4 0 z M43.28 37.6 l0 0.4 l0.4 0 l0 -0.4 l-0.4 0 z M43.28 38.8 l0 0.4 l0.4 0 l0 -0.4 l-0.4 0 z M43.28 34 l0 0.4 l0.4 0 l0 -0.4 l-0.4 0 z M43.28 35.2 l0 0.4 l0.4 0 l0 -0.4 l-0.4 0 z M44.480000000000004 38.8 l0 0.4 l0.4 0 l0 -0.4 l-0.4 0 z M44.480000000000004 37.6 l0 0.4 l0.4 0 l0 -0.4 l-0.4 0 z M58.120000000000005 35.6 l0 -0.4 l-0.4 0 l0 0.4 l0.4 0 z M44.480000000000004 34 l0 0.4 l0.4 0 l0 -0.4 l-0.4 0 z M46.88 36.4 l0 0.4 l0.4 0 l0 -0.4 l-0.4 0 z M46.88 22 l0 0.4 l0.4 0 l0 -0.4 l-0.4 0 z M42.08 36.4 l0 0.4 l0.4 0 l0 -0.4 l-0.4 0 z M42.08 37.6 l0 0.4 l0.4 0 l0 -0.4 l-0.4 0 z M46.88 23.2 l0 0.4 l0.4 0 l0 -0.4 l-0.4 0 z M44.480000000000004 35.2 l0 0.4 l0.4 0 l0 -0.4 l-0.4 0 z M56.92 34.4 l0 -0.4 l-0.4 0 l0 0.4 l0.4 0 z M46.88 25.6 l0 0.4 l0.4 0 l0 -0.4 l-0.4 0 z M43.28 25.6 l0 0.4 l0.4 0 l0 -0.4 l-0.4 0 z M45.68 24.4 l0 0.4 l0.4 0 l0 -0.4 l-0.4 0 z M42.08 38.8 l0 0.4 l0.4 0 l0 -0.4 l-0.4 0 z M59.32 34.4 l0 -0.4 l-0.4 0 l0 0.4 l0.4 0 z M45.68 35.2 l0 0.4 l0.4 0 l0 -0.4 l-0.4 0 z M46.88 37.6 l0 0.4 l0.4 0 l0 -0.4 l-0.4 0 z M73.32000000000001 40 l-6.8 0 l0 -28 l6.8 0 l0 8 l7.24 0 l0 1.2 l1.2 0 l0 1.2 l1.2 0 l0 1.2 l1.2 0 l0 1.2 l1.2 0 l0 1.2 l1.2 0 l0 14 l-6.8 0 l0 -13.2 l-6.44 0 l0 13.2 z M72.12 25.6 l0 0.4 l0.4 0 l0 -0.4 l-0.4 0 z M68.52000000000001 24.4 l0 0.4 l0.4 0 l0 -0.4 l-0.4 0 z M68.52000000000001 25.6 l0 0.4 l0.4 0 l0 -0.4 l-0.4 0 z M72.12 23.2 l0 0.4 l0.4 0 l0 -0.4 l-0.4 0 z M72.12 20.8 l0 0.4 l0.4 0 l0 -0.4 l-0.4 0 z M82.16000000000001 23.6 l0 -0.4 l-0.4 0 l0 0.4 l0.4 0 z M69.72000000000001 25.6 l0 0.4 l0.4 0 l0 -0.4 l-0.4 0 z M68.52000000000001 22 l0 0.4 l0.4 0 l0 -0.4 l-0.4 0 z M80.96000000000001 23.6 l0 -0.4 l-0.4 0 l0 0.4 l0.4 0 z M69.72000000000001 20.8 l0 0.4 l0.4 0 l0 -0.4 l-0.4 0 z M67.32000000000001 23.2 l0 0.4 l0.4 0 l0 -0.4 l-0.4 0 z M69.72000000000001 23.2 l0 0.4 l0.4 0 l0 -0.4 l-0.4 0 z M67.32000000000001 24.4 l0 0.4 l0.4 0 l0 -0.4 l-0.4 0 z M67.32000000000001 25.6 l0 0.4 l0.4 0 l0 -0.4 l-0.4 0 z M67.32000000000001 20.8 l0 0.4 l0.4 0 l0 -0.4 l-0.4 0 z M70.92000000000002 24.4 l0 0.4 l0.4 0 l0 -0.4 l-0.4 0 z M70.92000000000002 25.6 l0 0.4 l0.4 0 l0 -0.4 l-0.4 0 z M80.96000000000001 24.8 l0 -0.4 l-0.4 0 l0 0.4 l0.4 0 z M68.52000000000001 23.2 l0 0.4 l0.4 0 l0 -0.4 l-0.4 0 z M82.16000000000001 26 l0 -0.4 l-0.4 0 l0 0.4 l0.4 0 z M72.12 24.4 l0 0.4 l0.4 0 l0 -0.4 l-0.4 0 z M70.92000000000002 23.2 l0 0.4 l0.4 0 l0 -0.4 l-0.4 0 z M69.72000000000001 24.4 l0 0.4 l0.4 0 l0 -0.4 l-0.4 0 z M69.72000000000001 22 l0 0.4 l0.4 0 l0 -0.4 l-0.4 0 z M68.52000000000001 20.8 l0 0.4 l0.4 0 l0 -0.4 l-0.4 0 z M83.36000000000001 24.8 l0 -0.4 l-0.4 0 l0 0.4 l0.4 0 z M67.32000000000001 22 l0 0.4 l0.4 0 l0 -0.4 l-0.4 0 z M70.92000000000002 20.8 l0 0.4 l0.4 0 l0 -0.4 l-0.4 0 z M70.92000000000002 22 l0 0.4 l0.4 0 l0 -0.4 l-0.4 0 z M84.56 26 l0 -0.4 l-0.4 0 l0 0.4 l0.4 0 z M83.36000000000001 26 l0 -0.4 l-0.4 0 l0 0.4 l0.4 0 z M82.16000000000001 24.8 l0 -0.4 l-0.4 0 l0 0.4 l0.4 0 z M80.96000000000001 22.4 l0 -0.4 l-0.4 0 l0 0.4 l0.4 0 z M72.12 22 l0 0.4 l0.4 0 l0 -0.4 l-0.4 0 z M80.96000000000001 26 l0 -0.4 l-0.4 0 l0 0.4 l0.4 0 z M112.2 40 l-15.64 0 l0 -1.2 l-1.2 0 l0 -1.2 l-1.2 0 l0 -1.2 l-1.2 0 l0 -1.2 l-1.2 0 l0 -1.2 l-1.2 0 l0 -8 l1.2 0 l0 -1.2 l1.2 0 l0 -1.2 l1.2 0 l0 -1.2 l1.2 0 l0 -1.2 l1.2 0 l0 -1.2 l9.64 0 l0 1.2 l1.2 0 l0 1.2 l1.2 0 l0 1.2 l1.2 0 l0 1.2 l1.2 0 l0 1.2 l1.2 0 l0 14 z M97.36 26.8 l0 6.4 l8.04 0 l0 -6.4 l-8.04 0 z M93.76 25.6 l0 0.4 l0.4 0 l0 -0.4 l-0.4 0 z M96.16 34 l0 0.4 l0.4 0 l0 -0.4 l-0.4 0 z M96.16 23.2 l0 0.4 l0.4 0 l0 -0.4 l-0.4 0 z M109 26 l0 -0.4 l-0.4 0 l0 0.4 l0.4 0 z M106.6 26 l0 -0.4 l-0.4 0 l0 0.4 l0.4 0 z M96.16 25.6 l0 0.4 l0.4 0 l0 -0.4 l-0.4 0 z M96.16 24.4 l0 0.4 l0.4 0 l0 -0.4 l-0.4 0 z M107.8 24.8 l0 -0.4 l-0.4 0 l0 0.4 l0.4 0 z M96.16 36.4 l0 0.4 l0.4 0 l0 -0.4 l-0.4 0 z M92.56 25.6 l0 0.4 l0.4 0 l0 -0.4 l-0.4 0 z M93.76 35.2 l0 0.4 l0.4 0 l0 -0.4 l-0.4 0 z M94.96000000000001 23.2 l0 0.4 l0.4 0 l0 -0.4 l-0.4 0 z M107.4 34 l0 0.4 l0.4 0 l0 -0.4 l-0.4 0 z M106.2 36.4 l0 0.4 l0.4 0 l0 -0.4 l-0.4 0 z M93.76 34 l0 0.4 l0.4 0 l0 -0.4 l-0.4 0 z M106.6 22.4 l0 -0.4 l-0.4 0 l0 0.4 l0.4 0 z M107.4 35.2 l0 0.4 l0.4 0 l0 -0.4 l-0.4 0 z M107.4 36.4 l0 0.4 l0.4 0 l0 -0.4 l-0.4 0 z M108.6 34 l0 0.4 l0.4 0 l0 -0.4 l-0.4 0 z M94.96000000000001 36.4 l0 0.4 l0.4 0 l0 -0.4 l-0.4 0 z M106.2 34 l0 0.4 l0.4 0 l0 -0.4 l-0.4 0 z M96.16 35.2 l0 0.4 l0.4 0 l0 -0.4 l-0.4 0 z M107.8 23.6 l0 -0.4 l-0.4 0 l0 0.4 l0.4 0 z M106.6 24.8 l0 -0.4 l-0.4 0 l0 0.4 l0.4 0 z M106.6 23.6 l0 -0.4 l-0.4 0 l0 0.4 l0.4 0 z M110.2 26 l0 -0.4 l-0.4 0 l0 0.4 l0.4 0 z M107.8 26 l0 -0.4 l-0.4 0 l0 0.4 l0.4 0 z M106.2 37.6 l0 0.4 l0.4 0 l0 -0.4 l-0.4 0 z M94.96000000000001 35.2 l0 0.4 l0.4 0 l0 -0.4 l-0.4 0 z M106.2 35.2 l0 0.4 l0.4 0 l0 -0.4 l-0.4 0 z M94.96000000000001 25.6 l0 0.4 l0.4 0 l0 -0.4 l-0.4 0 z M94.96000000000001 34 l0 0.4 l0.4 0 l0 -0.4 l-0.4 0 z M109.8 34 l0 0.4 l0.4 0 l0 -0.4 l-0.4 0 z M109 24.8 l0 -0.4 l-0.4 0 l0 0.4 l0.4 0 z M108.6 35.2 l0 0.4 l0.4 0 l0 -0.4 l-0.4 0 z M94.96000000000001 24.4 l0 0.4 l0.4 0 l0 -0.4 l-0.4 0 z M92.56 34 l0 0.4 l0.4 0 l0 -0.4 l-0.4 0 z M93.76 24.4 l0 0.4 l0.4 0 l0 -0.4 l-0.4 0 z M96.16 37.6 l0 0.4 l0.4 0 l0 -0.4 l-0.4 0 z M96.16 22 l0 0.4 l0.4 0 l0 -0.4 l-0.4 0 z M138.48000000000002 12 l0 6.8 l-15.48 0 l0 14.4 l15.88 0 l0 6.8 l-16.68 0 l0 -1.2 l-1.2 0 l0 -1.2 l-1.2 0 l0 -1.2 l-1.2 0 l0 -1.2 l-1.2 0 l0 -1.2 l-1.2 0 l0 -16 l1.2 0 l0 -1.2 l1.2 0 l0 -1.2 l1.2 0 l0 -1.2 l1.2 0 l0 -1.2 l1.2 0 l0 -1.2 l16.28 0 z M120.60000000000001 15.2 l0 0.4 l0.4 0 l0 -0.4 l-0.4 0 z M119.4 35.2 l0 0.4 l0.4 0 l0 -0.4 l-0.4 0 z M121.8 36.4 l0 0.4 l0.4 0 l0 -0.4 l-0.4 0 z M121.8 35.2 l0 0.4 l0.4 0 l0 -0.4 l-0.4 0 z M119.4 17.6 l0 0.4 l0.4 0 l0 -0.4 l-0.4 0 z M121.8 16.4 l0 0.4 l0.4 0 l0 -0.4 l-0.4 0 z M121.8 17.6 l0 0.4 l0.4 0 l0 -0.4 l-0.4 0 z M119.4 34 l0 0.4 l0.4 0 l0 -0.4 l-0.4 0 z M119.4 16.4 l0 0.4 l0.4 0 l0 -0.4 l-0.4 0 z M121.8 15.2 l0 0.4 l0.4 0 l0 -0.4 l-0.4 0 z M120.60000000000001 34 l0 0.4 l0.4 0 l0 -0.4 l-0.4 0 z M120.60000000000001 16.4 l0 0.4 l0.4 0 l0 -0.4 l-0.4 0 z M121.8 37.6 l0 0.4 l0.4 0 l0 -0.4 l-0.4 0 z M121.8 34 l0 0.4 l0.4 0 l0 -0.4 l-0.4 0 z M118.2 17.6 l0 0.4 l0.4 0 l0 -0.4 l-0.4 0 z M121.8 14 l0 0.4 l0.4 0 l0 -0.4 l-0.4 0 z M120.60000000000001 35.2 l0 0.4 l0.4 0 l0 -0.4 l-0.4 0 z M118.2 34 l0 0.4 l0.4 0 l0 -0.4 l-0.4 0 z M120.60000000000001 17.6 l0 0.4 l0.4 0 l0 -0.4 l-0.4 0 z M120.60000000000001 36.4 l0 0.4 l0.4 0 l0 -0.4 l-0.4 0 z M142.88 40 l0 -20 l6.8 0 l0 20 l-6.8 0 z M149.68 17.24 l-6.8 0 l0 -5.24 l6.8 0 l0 5.24 z M168.92000000000002 40 l-8.44 0 l0 8.72 l-6.8 0 l0 -22.72 l1.2 0 l0 -1.2 l1.2 0 l0 -1.2 l1.2 0 l0 -1.2 l1.2 0 l0 -1.2 l1.2 0 l0 -1.2 l9.24 0 l0 1.2 l1.2 0 l0 1.2 l1.2 0 l0 1.2 l1.2 0 l0 1.2 l1.2 0 l0 1.2 l1.2 0 l0 8 l-1.2 0 l0 1.2 l-1.2 0 l0 1.2 l-1.2 0 l0 1.2 l-1.2 0 l0 1.2 l-1.2 0 l0 1.2 z M168.12 26.8 l-7.64 0 l0 6.4 l7.64 0 l0 -6.4 z M156.88 25.6 l0 0.4 l0.4 0 l0 -0.4 l-0.4 0 z M158.08 23.2 l0 0.4 l0.4 0 l0 -0.4 l-0.4 0 z M154.48000000000002 34 l0 0.4 l0.4 0 l0 -0.4 l-0.4 0 z M158.08 38.8 l0 0.4 l0.4 0 l0 -0.4 l-0.4 0 z M159.28 35.2 l0 0.4 l0.4 0 l0 -0.4 l-0.4 0 z M158.08 34 l0 0.4 l0.4 0 l0 -0.4 l-0.4 0 z M159.28 38.8 l0 0.4 l0.4 0 l0 -0.4 l-0.4 0 z M170.52 36.8 l0 -0.4 l-0.4 0 l0 0.4 l0.4 0 z M158.08 37.6 l0 0.4 l0.4 0 l0 -0.4 l-0.4 0 z M155.68 36.4 l0 0.4 l0.4 0 l0 -0.4 l-0.4 0 z M170.52 26 l0 -0.4 l-0.4 0 l0 0.4 l0.4 0 z M169.32 22.4 l0 -0.4 l-0.4 0 l0 0.4 l0.4 0 z M172.92000000000002 26 l0 -0.4 l-0.4 0 l0 0.4 l0.4 0 z M170.52 34.4 l0 -0.4 l-0.4 0 l0 0.4 l0.4 0 z M170.52 24.8 l0 -0.4 l-0.4 0 l0 0.4 l0.4 0 z M169.32 38 l0 -0.4 l-0.4 0 l0 0.4 l0.4 0 z M159.28 24.4 l0 0.4 l0.4 0 l0 -0.4 l-0.4 0 z M169.32 23.6 l0 -0.4 l-0.4 0 l0 0.4 l0.4 0 z M171.72 24.8 l0 -0.4 l-0.4 0 l0 0.4 l0.4 0 z M156.88 36.4 l0 0.4 l0.4 0 l0 -0.4 l-0.4 0 z M159.28 34 l0 0.4 l0.4 0 l0 -0.4 l-0.4 0 z M172.92000000000002 34.4 l0 -0.4 l-0.4 0 l0 0.4 l0.4 0 z M171.72 26 l0 -0.4 l-0.4 0 l0 0.4 l0.4 0 z M169.32 35.6 l0 -0.4 l-0.4 0 l0 0.4 l0.4 0 z M169.32 36.8 l0 -0.4 l-0.4 0 l0 0.4 l0.4 0 z M171.72 35.6 l0 -0.4 l-0.4 0 l0 0.4 l0.4 0 z M170.52 23.6 l0 -0.4 l-0.4 0 l0 0.4 l0.4 0 z M158.08 25.6 l0 0.4 l0.4 0 l0 -0.4 l-0.4 0 z M158.08 36.4 l0 0.4 l0.4 0 l0 -0.4 l-0.4 0 z M154.48000000000002 35.2 l0 0.4 l0.4 0 l0 -0.4 l-0.4 0 z M169.32 24.8 l0 -0.4 l-0.4 0 l0 0.4 l0.4 0 z M156.88 24.4 l0 0.4 l0.4 0 l0 -0.4 l-0.4 0 z M169.32 26 l0 -0.4 l-0.4 0 l0 0.4 l0.4 0 z M155.68 37.6 l0 0.4 l0.4 0 l0 -0.4 l-0.4 0 z M155.68 38.8 l0 0.4 l0.4 0 l0 -0.4 l-0.4 0 z M155.68 34 l0 0.4 l0.4 0 l0 -0.4 l-0.4 0 z M155.68 35.2 l0 0.4 l0.4 0 l0 -0.4 l-0.4 0 z M156.88 38.8 l0 0.4 l0.4 0 l0 -0.4 l-0.4 0 z M156.88 37.6 l0 0.4 l0.4 0 l0 -0.4 l-0.4 0 z M170.52 35.6 l0 -0.4 l-0.4 0 l0 0.4 l0.4 0 z M156.88 34 l0 0.4 l0.4 0 l0 -0.4 l-0.4 0 z M159.28 36.4 l0 0.4 l0.4 0 l0 -0.4 l-0.4 0 z M159.28 22 l0 0.4 l0.4 0 l0 -0.4 l-0.4 0 z M154.48000000000002 36.4 l0 0.4 l0.4 0 l0 -0.4 l-0.4 0 z M154.48000000000002 37.6 l0 0.4 l0.4 0 l0 -0.4 l-0.4 0 z M159.28 23.2 l0 0.4 l0.4 0 l0 -0.4 l-0.4 0 z M156.88 35.2 l0 0.4 l0.4 0 l0 -0.4 l-0.4 0 z M169.32 34.4 l0 -0.4 l-0.4 0 l0 0.4 l0.4 0 z M159.28 25.6 l0 0.4 l0.4 0 l0 -0.4 l-0.4 0 z M155.68 25.6 l0 0.4 l0.4 0 l0 -0.4 l-0.4 0 z M158.08 24.4 l0 0.4 l0.4 0 l0 -0.4 l-0.4 0 z M154.48000000000002 38.8 l0 0.4 l0.4 0 l0 -0.4 l-0.4 0 z M171.72 34.4 l0 -0.4 l-0.4 0 l0 0.4 l0.4 0 z M158.08 35.2 l0 0.4 l0.4 0 l0 -0.4 l-0.4 0 z M159.28 37.6 l0 0.4 l0.4 0 l0 -0.4 l-0.4 0 z M185.72000000000003 40 l-6.8 0 l0 -28 l6.8 0 l0 8 l7.24 0 l0 1.2 l1.2 0 l0 1.2 l1.2 0 l0 1.2 l1.2 0 l0 1.2 l1.2 0 l0 1.2 l1.2 0 l0 14 l-6.8 0 l0 -13.2 l-6.44 0 l0 13.2 z M184.52 25.6 l0 0.4 l0.4 0 l0 -0.4 l-0.4 0 z M180.92000000000002 24.4 l0 0.4 l0.4 0 l0 -0.4 l-0.4 0 z M180.92000000000002 25.6 l0 0.4 l0.4 0 l0 -0.4 l-0.4 0 z M184.52 23.2 l0 0.4 l0.4 0 l0 -0.4 l-0.4 0 z M184.52 20.8 l0 0.4 l0.4 0 l0 -0.4 l-0.4 0 z M194.56 23.6 l0 -0.4 l-0.4 0 l0 0.4 l0.4 0 z M182.12 25.6 l0 0.4 l0.4 0 l0 -0.4 l-0.4 0 z M180.92000000000002 22 l0 0.4 l0.4 0 l0 -0.4 l-0.4 0 z M193.36 23.6 l0 -0.4 l-0.4 0 l0 0.4 l0.4 0 z M182.12 20.8 l0 0.4 l0.4 0 l0 -0.4 l-0.4 0 z M179.72000000000003 23.2 l0 0.4 l0.4 0 l0 -0.4 l-0.4 0 z M182.12 23.2 l0 0.4 l0.4 0 l0 -0.4 l-0.4 0 z M179.72000000000003 24.4 l0 0.4 l0.4 0 l0 -0.4 l-0.4 0 z M179.72000000000003 25.6 l0 0.4 l0.4 0 l0 -0.4 l-0.4 0 z M179.72000000000003 20.8 l0 0.4 l0.4 0 l0 -0.4 l-0.4 0 z M183.32000000000002 24.4 l0 0.4 l0.4 0 l0 -0.4 l-0.4 0 z M183.32000000000002 25.6 l0 0.4 l0.4 0 l0 -0.4 l-0.4 0 z M193.36 24.8 l0 -0.4 l-0.4 0 l0 0.4 l0.4 0 z M180.92000000000002 23.2 l0 0.4 l0.4 0 l0 -0.4 l-0.4 0 z M194.56 26 l0 -0.4 l-0.4 0 l0 0.4 l0.4 0 z M184.52 24.4 l0 0.4 l0.4 0 l0 -0.4 l-0.4 0 z M183.32000000000002 23.2 l0 0.4 l0.4 0 l0 -0.4 l-0.4 0 z M182.12 24.4 l0 0.4 l0.4 0 l0 -0.4 l-0.4 0 z M182.12 22 l0 0.4 l0.4 0 l0 -0.4 l-0.4 0 z M180.92000000000002 20.8 l0 0.4 l0.4 0 l0 -0.4 l-0.4 0 z M195.76000000000002 24.8 l0 -0.4 l-0.4 0 l0 0.4 l0.4 0 z M179.72000000000003 22 l0 0.4 l0.4 0 l0 -0.4 l-0.4 0 z M183.32000000000002 20.8 l0 0.4 l0.4 0 l0 -0.4 l-0.4 0 z M183.32000000000002 22 l0 0.4 l0.4 0 l0 -0.4 l-0.4 0 z M196.96 26 l0 -0.4 l-0.4 0 l0 0.4 l0.4 0 z M195.76000000000002 26 l0 -0.4 l-0.4 0 l0 0.4 l0.4 0 z M194.56 24.8 l0 -0.4 l-0.4 0 l0 0.4 l0.4 0 z M193.36 22.4 l0 -0.4 l-0.4 0 l0 0.4 l0.4 0 z M184.52 22 l0 0.4 l0.4 0 l0 -0.4 l-0.4 0 z M193.36 26 l0 -0.4 l-0.4 0 l0 0.4 l0.4 0 z M222.64000000000001 26 l0 6.08 l-12.88 0 l0 1.12 l12.88 0 l0 0.8 l-6 6 l-7.68 0 l0 -1.2 l-1.2 0 l0 -1.2 l-1.2 0 l0 -1.2 l-1.2 0 l0 -1.2 l-1.2 0 l0 -1.2 l-1.2 0 l0 -8 l1.2 0 l0 -1.2 l1.2 0 l0 -1.2 l1.2 0 l0 -1.2 l1.2 0 l0 -1.2 l1.2 0 l0 -1.2 l7.68 0 l0 1.2 l1.2 0 l0 1.2 l1.2 0 l0 1.2 l1.2 0 l0 1.2 l1.2 0 l0 1.2 l1.2 0 z M209.76000000000002 27.68 l6.08 0 l0 -0.88 l-6.08 0 l0 0.88 z M221.44 28.880000000000003 l0.44 0 l0 -0.4 l-0.44 0 l0 0.4 z M221.44 31.28 l0.44 0 l0 -0.4 l-0.44 0 l0 0.4 z M221.44 30.08 l0.44 0 l0 -0.4 l-0.44 0 l0 0.4 z M208.56 35.2 l0 0.4 l0.4 0 l0 -0.4 l-0.4 0 z M219.04000000000002 30.880000000000003 l0 0.4 l0.4 0 l0 -0.4 l-0.4 0 z M218.24 24.8 l0 -0.4 l-0.4 0 l0 0.4 l0.4 0 z M216.64000000000001 30.880000000000003 l0 0.4 l0.4 0 l0 -0.4 l-0.4 0 z M208.56 24.4 l0 0.4 l0.4 0 l0 -0.4 l-0.4 0 z M217.04000000000002 26 l0 -0.4 l-0.4 0 l0 0.4 l0.4 0 z M217.84 30.880000000000003 l0 0.4 l0.4 0 l0 -0.4 l-0.4 0 z M220.24 28.48 l0 0.4 l0.4 0 l0 -0.4 l-0.4 0 z M219.44 26 l0 -0.4 l-0.4 0 l0 0.4 l0.4 0 z M219.04000000000002 28.48 l0 0.4 l0.4 0 l0 -0.4 l-0.4 0 z M208.56 23.2 l0 0.4 l0.4 0 l0 -0.4 l-0.4 0 z M218.24 23.6 l0 -0.4 l-0.4 0 l0 0.4 l0.4 0 z M207.36 36.4 l0 0.4 l0.4 0 l0 -0.4 l-0.4 0 z M207.36 25.6 l0 0.4 l0.4 0 l0 -0.4 l-0.4 0 z M219.44 24.8 l0 -0.4 l-0.4 0 l0 0.4 l0.4 0 z M220.24 30.880000000000003 l0 0.4 l0.4 0 l0 -0.4 l-0.4 0 z M208.56 25.6 l0 0.4 l0.4 0 l0 -0.4 l-0.4 0 z M206.16 25.6 l0 0.4 l0.4 0 l0 -0.4 l-0.4 0 z M207.36 34 l0 0.4 l0.4 0 l0 -0.4 l-0.4 0 z M208.56 37.6 l0 0.4 l0.4 0 l0 -0.4 l-0.4 0 z M207.36 24.4 l0 0.4 l0.4 0 l0 -0.4 l-0.4 0 z M204.96 25.6 l0 0.4 l0.4 0 l0 -0.4 l-0.4 0 z M216.64000000000001 29.68 l0 0.4 l0.4 0 l0 -0.4 l-0.4 0 z M208.56 34 l0 0.4 l0.4 0 l0 -0.4 l-0.4 0 z M206.16 34 l0 0.4 l0.4 0 l0 -0.4 l-0.4 0 z M220.24 29.68 l0 0.4 l0.4 0 l0 -0.4 l-0.4 0 z M217.84 29.68 l0 0.4 l0.4 0 l0 -0.4 l-0.4 0 z M217.04000000000002 24.8 l0 -0.4 l-0.4 0 l0 0.4 l0.4 0 z M207.36 35.2 l0 0.4 l0.4 0 l0 -0.4 l-0.4 0 z M217.84 28.48 l0 0.4 l0.4 0 l0 -0.4 l-0.4 0 z M208.56 22 l0 0.4 l0.4 0 l0 -0.4 l-0.4 0 z M217.04000000000002 22.4 l0 -0.4 l-0.4 0 l0 0.4 l0.4 0 z M219.04000000000002 29.68 l0 0.4 l0.4 0 l0 -0.4 l-0.4 0 z M204.96 34 l0 0.4 l0.4 0 l0 -0.4 l-0.4 0 z M220.64000000000001 26 l0 -0.4 l-0.4 0 l0 0.4 l0.4 0 z M216.64000000000001 28.48 l0 0.4 l0.4 0 l0 -0.4 l-0.4 0 z M207.36 23.2 l0 0.4 l0.4 0 l0 -0.4 l-0.4 0 z M217.04000000000002 23.6 l0 -0.4 l-0.4 0 l0 0.4 l0.4 0 z M206.16 24.4 l0 0.4 l0.4 0 l0 -0.4 l-0.4 0 z M218.24 26 l0 -0.4 l-0.4 0 l0 0.4 l0.4 0 z M208.56 36.4 l0 0.4 l0.4 0 l0 -0.4 l-0.4 0 z M206.16 35.2 l0 0.4 l0.4 0 l0 -0.4 l-0.4 0 z M242.16000000000003 20 l0 6.8 l-8.72 0 l0 13.2 l-6.8 0 l0 -20 l15.52 0 z M229.84 24.4 l0 0.4 l0.4 0 l0 -0.4 l-0.4 0 z M232.24 23.2 l0 0.4 l0.4 0 l0 -0.4 l-0.4 0 z M232.24 22 l0 0.4 l0.4 0 l0 -0.4 l-0.4 0 z M232.24 25.6 l0 0.4 l0.4 0 l0 -0.4 l-0.4 0 z M231.04000000000002 24.4 l0 0.4 l0.4 0 l0 -0.4 l-0.4 0 z M228.64000000000001 25.6 l0 0.4 l0.4 0 l0 -0.4 l-0.4 0 z M231.04000000000002 23.2 l0 0.4 l0.4 0 l0 -0.4 l-0.4 0 z M232.24 24.4 l0 0.4 l0.4 0 l0 -0.4 l-0.4 0 z M229.84 25.6 l0 0.4 l0.4 0 l0 -0.4 l-0.4 0 z M231.04000000000002 25.6 l0 0.4 l0.4 0 l0 -0.4 l-0.4 0 z"></path></g></svg>
