<svg width="159.84000000000003" height="142.1517865204508" viewBox="0 0 159.84000000000003 142.1517865204508" xmlns="http://www.w3.org/2000/svg"><defs id="SvgjsDefs2790"></defs><g id="SvgjsG2791" featurekey="pGdL2l-0" transform="matrix(-0.9722222222222222,0,0,0.9722222222222222,128.61111111111111,-4.861111111111107)" fill="#035718"><defs xmlns="http://www.w3.org/2000/svg"></defs><g xmlns="http://www.w3.org/2000/svg"><path class="fil0" d="M69 14c0,-5 -4,-9 -10,-9 -5,0 -9,4 -9,9 0,5 4,10 9,10 6,0 10,-5 10,-10zm-20 55l-7 9c1,2 3,4 4,6 4,3 9,6 14,6 6,0 11,-3 15,-6 3,-4 6,-9 6,-15 0,-4 -2,-7 -4,-11l-1 10 0 1 -5 0 -22 0zm-10 14l-4 6 -1 1 -1 0 -19 0 0 -5 6 0c-1,-1 -1,-2 -1,-4 0,-1 0,-1 0,-2l0 0 14 -19 0 0c0,-1 1,-2 3,-2l15 -4c0,0 2,-1 2,-3l2 -11 -5 6 -18 0c0,0 0,0 -1,0l0 0 0 0c-1,0 -2,-2 -2,-3 0,-1 0,-1 0,-1l-7 -12 9 -11 10 16 -4 4 8 0 6 -7c2,-2 4,-5 8,-5 0,0 0,0 0,0l0 0 5 0c4,0 8,4 8,8l-2 22c0,1 0,2 -1,3 -1,2 -3,4 -6,4l8 0 3 -31 6 0 -2 18 1 0c4,5 7,11 7,18 0,8 -3,14 -7,19 -5,4 -11,7 -19,7 -7,0 -13,-3 -18,-7 -1,-2 -2,-3 -3,-5zm-13 2l5 0 14 -19 -6 1 -12 17 0 0c0,0 0,1 -1,1z" style="fill: #035718;"></path></g></g><g id="SvgjsG2792" featurekey="8SqGaB-0" transform="matrix(1.2738284644871092,0,0,1.2738284644871092,-1.6050240049577689,110.56084218043323)" fill="#035718"><path d="M2.4 5.84 q0.46 0 0.8 0.33 t0.34 0.81 q0 0.5 -0.32 0.82 t-0.82 0.32 t-0.82 -0.32 t-0.32 -0.82 q0 -0.48 0.34 -0.81 t0.8 -0.33 z M3.18 10.64 l0 9.36 l-1.56 0 l0 -9.36 l1.56 0 z M10.879999999999999 10.4 q1.76 0 2.66 1.02 t0.9 2.72 l0 5.86 l-1.56 0 l0 -5.68 q0 -1.08 -0.5 -1.77 t-1.64 -0.71 q-1.44 0 -2.17 0.95 t-0.73 2.63 l0 4.58 l-1.56 0 l0 -7.28 q0 -0.1 -0.08 -2.08 l1.48 0 q0.04 1.4 0.04 1.54 l0.04 0 q0.38 -0.8 1.23 -1.29 t1.89 -0.49 z M20.26 10.4 q2.24 0.02 3.18 1.7 l-1.3 0.86 q-0.68 -1.12 -1.98 -1.12 q-0.78 0 -1.31 0.36 t-0.53 0.94 q0 0.94 2.34 1.36 q1.68 0.3 2.38 0.98 t0.7 1.82 q0 1.38 -1.02 2.16 t-2.72 0.78 q-1.32 0 -2.17 -0.42 t-1.47 -1.32 l1.24 -0.96 q0.58 0.7 1.14 0.98 t1.26 0.28 q0.9 0 1.48 -0.39 t0.58 -1.05 q0 -0.68 -0.61 -1.02 t-2.03 -0.62 q-1.4 -0.3 -2.03 -0.9 t-0.63 -1.66 q0 -1.18 0.97 -1.96 t2.53 -0.8 z M28.28 7.98 l0 2.66 l2.76 0 l0 1.32 l-2.76 0 l0 5 q0 1.12 0.36 1.48 t1.04 0.36 q0.78 0 1.38 -0.32 l0.06 1.42 q-0.8 0.34 -1.82 0.34 q-1.44 0 -2.01 -0.71 t-0.57 -2.33 l0 -5.24 l-2.04 0 l0 -1.32 l2.04 0 l0 -2.66 l1.56 0 z M36.56 10.4 q2.04 0 2.97 0.96 t0.95 2.9 l0 4.2 q0 0.6 0.14 1.54 l-1.5 0 q-0.1 -0.18 -0.1 -1.4 l-0.04 0 q-1.06 1.6 -3.08 1.64 q-1.54 0 -2.51 -0.77 t-0.97 -2.01 q0 -1.7 1.4 -2.49 t4.38 -0.79 l0.72 0 l0 -0.26 q0 -2.04 -2.32 -2.08 q-1.68 0 -2.78 1.02 l-0.98 -1.02 q1.44 -1.4 3.72 -1.44 z M34.1 17.3 q0 1.58 2.06 1.62 q1.22 0 1.99 -0.78 t0.77 -2.28 l0 -0.36 l-1.72 0 q-1.38 0 -2.23 0.44 t-0.87 1.36 z M46.2 10.4 q2.24 0.02 3.18 1.7 l-1.3 0.86 q-0.68 -1.12 -1.98 -1.12 q-0.78 0 -1.31 0.36 t-0.53 0.94 q0 0.94 2.34 1.36 q1.68 0.3 2.38 0.98 t0.7 1.82 q0 1.38 -1.02 2.16 t-2.72 0.78 q-1.32 0 -2.17 -0.42 t-1.47 -1.32 l1.24 -0.96 q0.58 0.7 1.14 0.98 t1.26 0.28 q0.9 0 1.48 -0.39 t0.58 -1.05 q0 -0.68 -0.61 -1.02 t-2.03 -0.62 q-1.4 -0.3 -2.03 -0.9 t-0.63 -1.66 q0 -1.18 0.97 -1.96 t2.53 -0.8 z M55.459999999999994 10.4 q2.04 0 2.97 0.96 t0.95 2.9 l0 4.2 q0 0.6 0.14 1.54 l-1.5 0 q-0.1 -0.18 -0.1 -1.4 l-0.04 0 q-1.06 1.6 -3.08 1.64 q-1.54 0 -2.51 -0.77 t-0.97 -2.01 q0 -1.7 1.4 -2.49 t4.38 -0.79 l0.72 0 l0 -0.26 q0 -2.04 -2.32 -2.08 q-1.68 0 -2.78 1.02 l-0.98 -1.02 q1.44 -1.4 3.72 -1.44 z M52.99999999999999 17.3 q0 1.58 2.06 1.62 q1.22 0 1.99 -0.78 t0.77 -2.28 l0 -0.36 l-1.72 0 q-1.38 0 -2.23 0.44 t-0.87 1.36 z M66.66 10.4 q1.08 0 1.99 0.5 t1.33 1.34 l0.04 0 l0 -1.6 l1.56 0 l0 9.04 q0 2.4 -1.28 3.74 t-3.82 1.38 q-1.38 0 -2.5 -0.4 t-2.1 -1.38 l1.12 -1.28 q1.5 1.62 3.48 1.62 q3.54 0 3.54 -3.76 l0 -1.22 l-0.04 0 q-0.52 0.84 -1.44 1.29 t-1.88 0.45 q-2.16 0 -3.54 -1.35 t-1.42 -3.45 q0 -2.26 1.36 -3.58 t3.6 -1.34 z M63.379999999999995 15.32 q0 1.4 0.96 2.37 t2.34 0.99 q1.52 0 2.43 -0.98 t0.91 -2.42 q0 -1.54 -0.93 -2.48 t-2.43 -0.96 q-1.42 0 -2.35 1 t-0.93 2.48 z M78.72 10.4 q2.08 0 3.25 1.31 t1.19 3.71 l0 0.38 l-7.56 0 q0.12 1.3 0.98 2.14 t2.1 0.86 q1.9 0 2.96 -1.42 l1.18 0.92 q-0.74 0.96 -1.74 1.45 t-2.4 0.49 q-2.14 0 -3.44 -1.39 t-1.32 -3.53 q0 -2.12 1.33 -3.5 t3.47 -1.42 z M81.48 14.48 q-0.06 -1.22 -0.79 -1.93 t-2.05 -0.71 q-1.2 0 -2.02 0.68 t-1.02 1.96 l5.88 0 z M88.08000000000001 18.92 q0 0.48 -0.36 0.84 t-0.84 0.36 q-0.46 0 -0.83 -0.36 t-0.37 -0.84 t0.35 -0.84 t0.85 -0.36 t0.85 0.35 t0.35 0.85 z M95.46000000000001 10.4 q2.22 0 3.58 1.48 l-1.24 1.1 q-0.94 -1.14 -2.36 -1.14 q-1.46 0 -2.31 0.95 t-0.85 2.53 q0 1.5 0.91 2.48 t2.25 1 q1.54 0 2.38 -1.16 l1.16 1.1 q-1.3 1.48 -3.54 1.5 q-2.14 -0.02 -3.47 -1.36 t-1.37 -3.56 q0.02 -2.24 1.4 -3.58 t3.46 -1.34 z M105.24000000000001 10.4 q2.18 0 3.56 1.35 t1.44 3.57 q0 2.14 -1.4 3.51 t-3.6 1.41 q-2.2 0 -3.58 -1.39 t-1.42 -3.53 q0 -2.16 1.4 -3.53 t3.6 -1.39 z M101.92000000000002 15.32 q0 1.54 0.93 2.49 t2.39 0.99 q1.46 0 2.38 -0.97 t0.94 -2.51 q0 -1.52 -0.93 -2.5 t-2.41 -0.98 q-1.44 0 -2.36 0.97 t-0.94 2.51 z M117.28 10.4 q2.14 0 2.94 1.78 q0.56 -0.92 1.26 -1.35 t1.72 -0.43 q1.82 0 2.68 0.95 t0.86 2.87 l0 5.78 l-1.56 0 l0 -5.66 q0 -2.46 -2.28 -2.5 q-1.06 0 -1.74 0.79 t-0.68 1.91 l0 5.46 l-1.56 0 l0 -5.42 q0 -1.38 -0.4 -2.06 t-1.42 -0.68 q-1.42 0 -2.15 0.95 t-0.73 2.63 l0 4.58 l-1.56 0 l0 -7.28 q-0.02 -0.7 -0.08 -2.08 l1.48 0 q0.04 1.38 0.04 1.54 l0.04 0 q0.38 -0.8 1.22 -1.29 t1.92 -0.49 z"></path></g></svg>
