<svg id="Capa_1" enable-background="new 0 0 511 511" height="512" viewBox="0 0 511 511" width="512" xmlns="http://www.w3.org/2000/svg"><g><path d="m511 294.643v-17.143c0-22.939-16.345-42.131-38-46.544v-13.456c0-40.669-11.297-80.333-32.67-114.703-20.782-33.419-50.222-60.617-85.139-78.655l-6.885 13.327c67.662 34.953 109.694 103.937 109.694 180.031v12.5h-15v-12.5c0-103.388-84.112-187.5-187.5-187.5s-187.5 84.112-187.5 187.5v12.5h-15v-12.5c0-48.749 17.57-95.85 49.471-132.626l-11.331-9.83c-34.267 39.504-53.14 90.096-53.14 142.456v13.456c-21.655 4.413-38 23.605-38 46.544v17.143h15v-17.143c0-17.92 14.58-32.5 32.5-32.5h2.5v92.5h15v-92.5h15v145h-32.5c-17.92 0-32.5-14.58-32.5-32.5v-47.857h-15v47.857c0 26.191 21.309 47.5 47.5 47.5h47.5v-175h-12v-12.5c0-95.117 77.383-172.5 172.5-172.5s172.5 77.383 172.5 172.5v12.5h-12v175h22v68.5c0 6.341-5.159 11.5-11.5 11.5s-11.5-5.159-11.5-11.5v-13c0-17.369-14.131-31.5-31.5-31.5s-31.5 14.131-31.5 31.5v16c0 10.752-8.748 19.5-19.5 19.5s-19.5-8.748-19.5-19.5v-36h-15v36c0 19.023 15.477 34.5 34.5 34.5s34.5-15.477 34.5-34.5v-16c0-9.098 7.402-16.5 16.5-16.5s16.5 7.402 16.5 16.5v13c0 14.612 11.888 26.5 26.5 26.5s26.5-11.888 26.5-26.5v-68.5h10.5c26.191 0 47.5-21.309 47.5-47.5v-47.857h-15v47.857c0 17.92-14.58 32.5-32.5 32.5h-32.5v-145h15v92.5h15v-92.5h2.5c17.92 0 32.5 14.58 32.5 32.5v17.143z"/><path d="m155.5 250h70v15h-70z"/><path d="m155.5 280h30v15h-30z"/><path d="m393 199h-97.5c-16.782 0-31.548 8.756-40 21.932-8.452-13.176-23.218-21.932-40-21.932h-97.5v195h45.357v-15h-30.357v-25h82.5c15.339 0 28.221 10.685 31.617 25h-68.76v15h214.643zm-145 152.906c-8.504-7.994-19.936-12.906-32.5-12.906h-82.5v-125h82.5c17.92 0 32.5 14.58 32.5 32.5zm130 27.094h-114.117c3.396-14.315 16.278-25 31.617-25h82.5zm0-40h-82.5c-12.564 0-23.996 4.912-32.5 12.906v-105.406c0-17.92 14.58-32.5 32.5-32.5h82.5z"/><path d="m285.5 250h70v15h-70z"/><path d="m285.5 280h30v15h-30z"/><path d="m255.5 15c27.689 0 54.521 5.486 79.748 16.306l5.912-13.786c-27.106-11.625-55.926-17.52-85.66-17.52-58.087 0-112.699 22.617-153.777 63.686l10.605 10.607c38.245-38.236 89.091-59.293 143.172-59.293z"/><path d="m298 409.5h15v15h-15z"/><path d="m50 352.5h15v15h-15z"/><path d="m446 352.5h15v15h-15z"/><path d="m200.5 280h15v15h-15z"/><path d="m331.5 280h15v15h-15z"/></g></svg>