<svg height="512" viewBox="0 0 64 64" width="512" xmlns="http://www.w3.org/2000/svg"><g id="Error-Smartphone"><path d="m45 2h-26a5.006 5.006 0 0 0 -5 5v50a5.006 5.006 0 0 0 5 5h26a5.006 5.006 0 0 0 5-5v-50a5.006 5.006 0 0 0 -5-5zm-19 2h12v2h-12zm22 53a3 3 0 0 1 -3 3h-26a3 3 0 0 1 -3-3v-50a3 3 0 0 1 3-3h5v2a2 2 0 0 0 2 2h12a2 2 0 0 0 2-2v-2h5a3 3 0 0 1 3 3z"/><path d="m32 52a3 3 0 1 0 3 3 3 3 0 0 0 -3-3zm0 4a1 1 0 1 1 1-1 1 1 0 0 1 -1 1z"/><path d="m18 11h2v2h-2z"/><path d="m22 11h2v2h-2z"/><path d="m26 11h12v2h-12z"/><path d="m40 11h6v2h-6z"/><path d="m44 35h2v2h-2z"/><path d="m40 35h2v2h-2z"/><path d="m26 35h12v2h-12z"/><path d="m18 35h6v2h-6z"/><path d="m18 17h8v2h-8z"/><path d="m28 17h4v2h-4z"/><path d="m34 17h2v2h-2z"/><path d="m38 17h8v2h-8z"/><path d="m18 41h8v2h-8z"/><path d="m28 41h4v2h-4z"/><path d="m34 41h2v2h-2z"/><path d="m38 41h8v2h-8z"/><path d="m18 23h22v2h-22z"/><path d="m42 23h4v2h-4z"/><path d="m18 29h4v2h-4z"/><path d="m24 29h4v2h-4z"/><path d="m30 29h16v2h-16z"/><path d="m18 47h4v2h-4z"/><path d="m24 47h4v2h-4z"/><path d="m30 47h16v2h-16z"/></g></svg>